<svg xmlns="http://www.w3.org/2000/svg" viewBox="0 0 459.85 158.1"><defs><style>.cls-1{fill:#fff;}.cls-2{fill:#16becf;}</style></defs><g id="Layer_2" data-name="Layer 2"><g id="Layer_1-2" data-name="Layer 1"><path class="cls-1" d="M155.22,41.16V52.92H120.74q-4.59,0-6.68,2.25A8,8,0,0,0,112,60.9a9.9,9.9,0,0,0,.45,2.94,6.21,6.21,0,0,0,1.6,2.59,7.72,7.72,0,0,0,3,1.79,15.12,15.12,0,0,0,4.88.65h15.75a30.62,30.62,0,0,1,11.26,1.75,18.25,18.25,0,0,1,6.93,4.53,15,15,0,0,1,3.49,6.38,28.05,28.05,0,0,1,.95,7.18,24.7,24.7,0,0,1-1.2,7.87,16,16,0,0,1-3.79,6.23,17.77,17.77,0,0,1-6.63,4.14,28.52,28.52,0,0,1-9.81,1.49H101.4V96.68h37.88q4.78,0,7-2.34a8.34,8.34,0,0,0,2.25-6,10.25,10.25,0,0,0-.5-3.14,6.43,6.43,0,0,0-1.7-2.69,8.6,8.6,0,0,0-3.24-1.85,16.2,16.2,0,0,0-5.13-.7H122.33a30.44,30.44,0,0,1-11.06-1.69,17,17,0,0,1-6.73-4.49,15.59,15.59,0,0,1-3.39-6.28,26.54,26.54,0,0,1-1-7,24.81,24.81,0,0,1,1.15-7.73A15.31,15.31,0,0,1,105,46.64a17,17,0,0,1,6.53-4,27.91,27.91,0,0,1,9.56-1.45Z"/><rect class="cls-1" x="167.48" y="41.16" width="11.76" height="67.28"/><path class="cls-1" d="M201.27,108.44H189.51V54.62q0-6.59,3.79-10.62T205,40q7,0,10.62,3.34a22.66,22.66,0,0,1,5.73,9.12l19.63,43a5.83,5.83,0,0,0,1.6,2,4.19,4.19,0,0,0,2.69.8,4,4,0,0,0,2.94-1.05,3.7,3.7,0,0,0,1.05-2.74V41.16h11.86V94.89q0,6.67-3.84,10.71t-11.61,4a19.91,19.91,0,0,1-6.13-.85,13.22,13.22,0,0,1-4.59-2.49,16.19,16.19,0,0,1-3.34-3.94,26.92,26.92,0,0,1-2.39-5.18l-19.64-43a4.33,4.33,0,0,0-4.18-2.89,4.15,4.15,0,0,0-3,1,3.84,3.84,0,0,0-1,2.84Z"/><path class="cls-1" d="M327,41.16V52.92H299.25q-9.76,0-14.2,5.14t-4.44,16.79q0,11.57,4.39,16.7t14.25,5.13h11.17q5,0,7.17-2.64a10.35,10.35,0,0,0,2.2-6.83,9,9,0,0,0-2.05-6.33q-2-2.23-6.23-2.24H296.56V68.37h16.15q9.07,0,13.46,5.14t4.38,13.9a28.65,28.65,0,0,1-1.14,8.22,17.4,17.4,0,0,1-3.69,6.68,17.74,17.74,0,0,1-6.48,4.49,25.11,25.11,0,0,1-9.62,1.64H299.25q-14.75,0-22.57-8.32t-7.83-25.27q0-17,7.83-25.37t22.57-8.32Z"/><path class="cls-1" d="M436.61,41.16a26.11,26.11,0,0,1,9.77,1.65,18.93,18.93,0,0,1,6.72,4.38A17,17,0,0,1,457,53.62a23.86,23.86,0,0,1,1.25,7.68,25.64,25.64,0,0,1-.8,6.32A20.85,20.85,0,0,1,455,73.51a18.39,18.39,0,0,1-4.39,4.83A18.87,18.87,0,0,1,444,81.53l15.65,26.91H446.57l-15.35-26H413.68A1.49,1.49,0,0,0,412,84.12v24.32H400.22V81.83q0-5.68,2.5-8.17t8.07-2.5H437a10.5,10.5,0,0,0,4.29-.79,7.92,7.92,0,0,0,2.89-2.1,8.81,8.81,0,0,0,1.65-3,11.42,11.42,0,0,0,.55-3.49,9.32,9.32,0,0,0-2.25-6.23q-2.24-2.64-7.13-2.64H400.13V41.16Z"/><path class="cls-1" d="M335.43,52.8h56.31V40.91H342.9a7.48,7.48,0,0,0-7.47,7.47Z"/><rect class="cls-1" x="335.43" y="68.58" width="56.31" height="11.9"/><rect class="cls-1" x="335.43" y="96.31" width="56.31" height="11.89"/><path class="cls-2" d="M275.89,134.24h-2.8v3.44h2.82c1.87,0,2.29-.53,2.29-1.76s-.49-1.68-2.31-1.68"/><path class="cls-2" d="M277.83,130.36c0-1.23-.53-1.57-2.17-1.57h-2.57V132h2.73c1.55,0,2-.39,2-1.61"/><path class="cls-2" d="M366.29,129.18h-1.94v8.11h1.94c2.4,0,3.25-.72,3.25-3.93s-.76-4.18-3.25-4.18"/><path class="cls-2" d="M238.69,118.48l12.07,25.33c1.89,2.8,4.43,4.48,7.81,4.48H448.13a11.73,11.73,0,0,0,11.72-11.73V118.48Zm38,21.86h-8V126.13h7.69c4.16,0,5.75,1.29,5.75,3.79a2.74,2.74,0,0,1-2.17,3,3.14,3.14,0,0,1,2.57,3.38c0,2.68-2.15,4-5.85,4m31.11-5.8c0,4.29-2.33,6-7,6-4.49,0-6.77-1.74-6.77-6v-8.41h4.39v8c0,2.65.48,3.46,2.49,3.46s2.5-.76,2.5-3.46v-8h4.38Zm16.82,5.8h-4.41V126.13h4.41Zm23.6,0H337.25V126.13h4.39v11.11h6.56Zm18.5,0h-6.76V126.13h6.79c4.64,0,7.3,2.15,7.3,7.07s-2.64,7.14-7.33,7.14m23.7,0H386V126.13h4.41Zm25.94,0h-4.51l-4-7a20.57,20.57,0,0,1-1-2v9H403V126.13h4.57l4.05,7a16.75,16.75,0,0,1,.94,1.91v-8.89h3.77Zm26,0h-7.23c-4.51,0-7-2.48-7-7.12s2.63-7.09,7.53-7.09h5.77v3.07H436c-2.64,0-3.47,1.27-3.47,4s.72,4.16,3.24,4.16h2.47v-2.59h-2.71V132.2h6.8Z"/><path class="cls-1" d="M70.79,0V43.85L56.66,50.23S20.71,36.12,16.84,34.07s-8-5.67,0-9.78S70.79,0,70.79,0"/><path class="cls-2" d="M0,114S71,84.36,78.28,80.72,85.34,73,85.34,73v41c0,6.14-3.13,8.87-8.73,11.38S0,158.1,0,158.1Z"/><path class="cls-2" d="M30.27,92.1s-17.75-7.28-23-9.78S0,75.74,0,71V30.89s.68,4.41,8.42,7.78S65.54,63.43,71.23,65.93s6,7.06-.74,10S30.27,92.1,30.27,92.1"/></g></g></svg>